<svg width="27" height="24" viewBox="0 0 27 24" fill="none" xmlns="http://www.w3.org/2000/svg">
<path d="M26.9685 8.81862L26.7115 8.97488L26.4997 9.10071L24.67 10.2118L24.1652 10.5155L18 14.2391L17.662 14.4431L15.8683 15.528L15.7736 15.5844L15.6745 15.6452L15.5303 15.732L14.1647 16.5566L14.0386 16.639L14.025 16.6434L14.0115 16.6521L13.5023 16.9602L13.4842 16.9689L13.0651 16.7172L12.9885 16.6694L12.975 16.6607L12.3936 16.3092L11.4381 15.732L11.33 15.6669L11.1002 15.528L9.30646 14.4431L8.96843 14.2391L3.51527 10.9408L2.87081 10.5546L2.35702 10.2421L0.0315352 8.83599L0 8.81862L0.0315352 8.80131L0.0541055 8.78826L2.35702 7.39523L2.87081 7.08272L6.15173 5.09941L6.48522 4.89547L8.27893 3.81048L8.61242 3.61086L13.1598 0.859375H13.8087L17.9324 3.35482L21.1637 5.30771L24.1652 7.12177L24.5078 7.33007L24.67 7.42991L25.8417 8.13729L26.9459 8.80567L26.9685 8.81862Z" fill="#C4C4C4"/>
<path d="M24.6699 0.815852V20.3062C24.6699 20.3192 24.6699 20.3365 24.6654 20.3495C24.6563 20.5535 24.5572 20.7314 24.4085 20.8703C24.2373 21.0222 24.0029 21.1176 23.7415 21.1176H3.28537C3.02397 21.1176 2.78962 21.0222 2.61834 20.8703C2.45613 20.7228 2.35693 20.5275 2.35693 20.3062V0.815852C2.35693 0.364508 2.77612 0 3.28537 0H23.7415C24.2553 0 24.6699 0.364508 24.6699 0.815852Z" fill="#5EB2B2"/>
<path d="M15.8871 3.8125H5.84082V5.10123H15.8871V3.8125Z" fill="#86CCCA"/>
<path d="M15.8871 3.60889H5.84082V4.89761H15.8871V3.60889Z" fill="#52A6A3"/>
<path d="M21.1075 10.9009H5.84082V12.1896H21.1075V10.9009Z" fill="#86CCCA"/>
<path d="M21.1075 10.6973H5.84082V11.986H21.1075V10.6973Z" fill="#52A6A3"/>
<path d="M21.1075 14.4448H5.84082V15.7336H21.1075V14.4448Z" fill="#86CCCA"/>
<path d="M21.1075 14.2412H5.84082V15.5299H21.1075V14.2412Z" fill="#52A6A3"/>
<path d="M21.1075 7.35645H5.84082V8.64517H21.1075V7.35645Z" fill="#86CCCA"/>
<path d="M21.1075 7.15283H5.84082V8.44156H21.1075V7.15283Z" fill="#52A6A3"/>
<path d="M13.516 16.3571L13.3582 16.4439L12.9752 16.6609L10.3071 18.1625L9.93309 18.3751L5.7193 20.7447L5.05226 21.1179L0.653688 23.5916L0.31566 23.7783L0.0317383 23.9388V8.77539L0.0543086 8.78839L2.35722 10.0817L3.76786 10.8759L5.84096 12.0433L6.10684 12.1908L9.74831 14.2392L10.1134 14.4432L11.7944 15.3893L12.0423 15.5282L12.4028 15.7322L12.8715 15.9925L13.0067 16.0707L13.0788 16.1097L13.5025 16.3484L13.516 16.3571Z" fill="white"/>
<path d="M26.9984 8.7749V23.9414L26.9939 23.9376L26.9713 23.9227L26.9533 23.9115H26.9488L13.9062 16.58L13.6764 16.4495L13.5142 16.3562L14.028 16.0691L14.0415 16.0617L14.055 16.0542L14.5282 15.7894L26.9984 8.7749Z" fill="#E3E2E2"/>
<path opacity="0.68" d="M19.8868 5.75131C20.9989 5.75131 21.9005 4.88313 21.9005 3.81218C21.9005 2.74123 20.9989 1.87305 19.8868 1.87305C18.7746 1.87305 17.873 2.74123 17.873 3.81218C17.873 4.88313 18.7746 5.75131 19.8868 5.75131Z" fill="#EEF3CA"/>
<path d="M26.9987 21.5935V23.9197H26.9716L26.584 23.937H1.4589L1.44092 23.5768C1.89612 23.2774 2.49993 22.8737 2.89206 22.6177L2.94606 22.5829L4.2621 21.7106L6.31716 20.3436L6.91206 19.9487L13.154 15.8042L13.573 15.522C13.6722 15.4613 13.7848 15.4092 13.9065 15.3745C14.0508 15.3268 14.2085 15.2964 14.3662 15.2834C14.4203 15.279 14.4698 15.2747 14.5239 15.279C14.578 15.2703 14.6322 15.2703 14.6862 15.2703C14.8304 15.266 14.9702 15.279 15.1053 15.305C15.2495 15.3311 15.3802 15.3746 15.4974 15.4352L20.2295 17.9697L22.5685 19.2239L23.177 19.5494L25.3807 20.7298L26.8319 21.5066C26.8725 21.5284 26.9175 21.5501 26.9626 21.5761C26.9716 21.5805 26.9852 21.5892 26.9987 21.5935Z" fill="#757575"/>
<path d="M27.0002 22.4152V23.9385H0.0317383V22.4152C0.504924 22.1374 1.12687 21.7598 1.53251 21.5255L1.58656 21.4908L2.61857 20.8703L2.94304 20.6793L5.06571 19.4121L5.67864 19.0431L11.2174 15.7319L11.3301 15.6668L11.56 15.528L11.7944 15.3891L12.1189 15.1938L12.5515 14.9334C12.7768 14.8032 13.0698 14.7381 13.3582 14.7337C13.4122 14.7294 13.4618 14.7294 13.5159 14.7337C13.57 14.7294 13.6241 14.7294 13.6782 14.7337C13.8044 14.7337 13.926 14.7468 14.0432 14.7728C14.2055 14.8032 14.3542 14.8596 14.4804 14.9334L15.1068 15.3067L15.242 15.3891L15.4764 15.528L15.6747 15.6452L15.8189 15.732L19.0818 17.6849L21.3531 19.0432L21.9435 19.3991L24.0887 20.6794L24.4087 20.8704L25.4994 21.5257C25.5399 21.5474 25.5805 21.5691 25.6256 21.5952C25.914 21.773 26.2836 21.9944 26.6306 22.1983C26.7568 22.2763 26.883 22.3501 27.0002 22.4152Z" fill="#EAEAEA"/>
<path opacity="0.2" d="M24.6699 0.815852V1.03284C24.6699 0.581547 24.2553 0.216988 23.7415 0.216988H3.28532C2.77607 0.216988 2.35693 0.581496 2.35693 1.03284V0.815852C2.35688 0.364508 2.77607 0 3.28532 0H23.7415C24.2553 0 24.6699 0.364508 24.6699 0.815852Z" fill="#ABDBDF"/>
</svg>
