<svg width="91" height="33" viewBox="0 0 91 33" fill="none" xmlns="http://www.w3.org/2000/svg">
<rect x="34" y="3" width="57" height="26" rx="5" fill="#103A39"/>
<g filter="url(#filter0_d_626_222)">
<path d="M47.65 24.35C46.2833 24.35 45.1125 23.9583 44.1375 23.175C43.1625 22.3917 42.4167 21.2833 41.9 19.85C41.3833 18.4167 41.125 16.7292 41.125 14.7875C41.125 12.9125 41.3917 11.2792 41.925 9.8875C42.4667 8.4875 43.2333 7.40417 44.225 6.6375C45.2167 5.8625 46.3833 5.475 47.725 5.475C48.925 5.475 49.9542 5.73333 50.8125 6.25C51.6792 6.75833 52.3458 7.5125 52.8125 8.5125C53.2875 9.5125 53.5417 10.7542 53.575 12.2375H51.0875C51.0458 11.2542 50.9042 10.4208 50.6625 9.7375C50.4292 9.04583 50.075 8.52083 49.6 8.1625C49.1333 7.80417 48.5208 7.625 47.7625 7.625C46.8292 7.625 46.05 7.89583 45.425 8.4375C44.8 8.97917 44.325 9.78333 44 10.85C43.6833 11.9083 43.525 13.2167 43.525 14.775C43.525 17.1 43.8875 18.9208 44.6125 20.2375C45.3458 21.5542 46.3917 22.2125 47.75 22.2125C48.4833 22.2125 49.0875 22.0583 49.5625 21.75C50.0375 21.4333 50.4 21.0208 50.65 20.5125C50.9 19.9958 51.05 19.4375 51.1 18.8375H53.475C53.425 19.7375 53.2417 20.5333 52.925 21.225C52.6167 21.9083 52.2 22.4833 51.675 22.95C51.1583 23.4083 50.5583 23.7583 49.875 24C49.1917 24.2333 48.45 24.35 47.65 24.35ZM66.7527 24L62.4777 16.5875H59.0027L58.1652 16.4L58.5402 14.8625V14.4625H62.5152C63.2902 14.4625 63.9111 14.3042 64.3777 13.9875C64.8444 13.6625 65.1777 13.2375 65.3777 12.7125C65.5861 12.1875 65.6902 11.6167 65.6902 11C65.6902 10.3167 65.5777 9.74583 65.3527 9.2875C65.1277 8.82083 64.7611 8.47083 64.2527 8.2375C63.7444 8.00417 63.0652 7.8875 62.2152 7.8875L59.2277 7.875L59.2152 7.275L58.1527 5.825C58.5361 5.825 58.9652 5.825 59.4402 5.825C59.9152 5.825 60.3819 5.825 60.8402 5.825C61.2986 5.825 61.6944 5.825 62.0277 5.825C64.0527 5.825 65.5694 6.24583 66.5777 7.0875C67.5861 7.92083 68.0902 9.14583 68.0902 10.7625C68.0902 11.3708 68.0236 11.975 67.8902 12.575C67.7569 13.1667 67.5236 13.7208 67.1902 14.2375C66.8569 14.7542 66.3986 15.1958 65.8152 15.5625C65.2319 15.9208 64.4902 16.1708 63.5902 16.3125L63.6527 16.0125C63.9444 16.0042 64.1861 16.0292 64.3777 16.0875C64.5777 16.1458 64.7527 16.2542 64.9027 16.4125C65.0611 16.5708 65.2236 16.8 65.3902 17.1L69.3777 24H66.7527ZM57.0027 24V5.825H59.3027V24H57.0027ZM71.0555 24L71.443 5.825H74.793L76.7805 13.2125L77.4805 16.35H77.518L78.2305 13.2125L80.1555 5.825H83.518L83.9055 24H81.7805L81.5805 16.8L81.668 7.65H81.518L80.4555 11.7875L78.268 19.1625H76.793L74.493 11.7875L73.443 7.65H73.2805L73.3805 16.8L73.1805 24H71.0555Z" fill="#D8D9DD"/>
</g>
<path d="M26.9685 12.8186L26.7115 12.9749L26.4997 13.1007L24.67 14.2118L24.1652 14.5155L18 18.2391L17.662 18.4431L15.8683 19.528L15.7736 19.5844L15.6745 19.6452L15.5303 19.732L14.1647 20.5566L14.0386 20.639L14.025 20.6434L14.0115 20.6521L13.5023 20.9602L13.4842 20.9689L13.0651 20.7172L12.9885 20.6694L12.975 20.6607L12.3936 20.3092L11.4381 19.732L11.33 19.6669L11.1002 19.528L9.30646 18.4431L8.96843 18.2391L3.51527 14.9408L2.87081 14.5546L2.35702 14.2421L0.0315352 12.836L0 12.8186L0.0315352 12.8013L0.0541055 12.7883L2.35702 11.3952L2.87081 11.0827L6.15173 9.09941L6.48522 8.89547L8.27893 7.81048L8.61242 7.61086L13.1598 4.85938H13.8087L17.9324 7.35482L21.1637 9.30771L24.1652 11.1218L24.5078 11.3301L24.67 11.4299L25.8417 12.1373L26.9459 12.8057L26.9685 12.8186Z" fill="#C4C4C4"/>
<path d="M24.6699 4.81585V24.3062C24.6699 24.3192 24.6699 24.3365 24.6654 24.3495C24.6563 24.5535 24.5572 24.7314 24.4085 24.8703C24.2373 25.0222 24.0029 25.1176 23.7415 25.1176H3.28537C3.02397 25.1176 2.78962 25.0222 2.61834 24.8703C2.45613 24.7228 2.35693 24.5275 2.35693 24.3062V4.81585C2.35693 4.36451 2.77612 4 3.28537 4H23.7415C24.2553 4 24.6699 4.36451 24.6699 4.81585Z" fill="#5EB2B2"/>
<path d="M15.8871 7.8125H5.84082V9.10123H15.8871V7.8125Z" fill="#86CCCA"/>
<path d="M15.8871 7.60889H5.84082V8.89761H15.8871V7.60889Z" fill="#52A6A3"/>
<path d="M21.1075 14.9009H5.84082V16.1896H21.1075V14.9009Z" fill="#86CCCA"/>
<path d="M21.1075 14.6973H5.84082V15.986H21.1075V14.6973Z" fill="#52A6A3"/>
<path d="M21.1075 18.4448H5.84082V19.7336H21.1075V18.4448Z" fill="#86CCCA"/>
<path d="M21.1075 18.2412H5.84082V19.5299H21.1075V18.2412Z" fill="#52A6A3"/>
<path d="M21.1075 11.3564H5.84082V12.6452H21.1075V11.3564Z" fill="#86CCCA"/>
<path d="M21.1075 11.1528H5.84082V12.4416H21.1075V11.1528Z" fill="#52A6A3"/>
<path d="M13.516 20.3571L13.3582 20.4439L12.9752 20.6609L10.3071 22.1625L9.93309 22.3751L5.7193 24.7447L5.05226 25.1179L0.653688 27.5916L0.31566 27.7783L0.0317383 27.9388V12.7754L0.0543086 12.7884L2.35722 14.0817L3.76786 14.8759L5.84096 16.0433L6.10684 16.1908L9.74831 18.2392L10.1134 18.4432L11.7944 19.3893L12.0423 19.5282L12.4028 19.7322L12.8715 19.9925L13.0067 20.0707L13.0788 20.1097L13.5025 20.3484L13.516 20.3571Z" fill="white"/>
<path d="M26.9984 12.7749V27.9414L26.9939 27.9376L26.9713 27.9227L26.9533 27.9115H26.9488L13.9062 20.58L13.6764 20.4495L13.5142 20.3562L14.028 20.0691L14.0415 20.0617L14.055 20.0542L14.5282 19.7894L26.9984 12.7749Z" fill="#E3E2E2"/>
<path opacity="0.68" d="M19.8868 9.75131C20.9989 9.75131 21.9005 8.88313 21.9005 7.81218C21.9005 6.74123 20.9989 5.87305 19.8868 5.87305C18.7746 5.87305 17.873 6.74123 17.873 7.81218C17.873 8.88313 18.7746 9.75131 19.8868 9.75131Z" fill="#EEF3CA"/>
<path d="M26.9987 25.5935V27.9197H26.9716L26.584 27.937H1.4589L1.44092 27.5768C1.89612 27.2774 2.49993 26.8737 2.89206 26.6177L2.94606 26.5829L4.2621 25.7106L6.31716 24.3436L6.91206 23.9487L13.154 19.8042L13.573 19.522C13.6722 19.4613 13.7848 19.4092 13.9065 19.3745C14.0508 19.3268 14.2085 19.2964 14.3662 19.2834C14.4203 19.279 14.4698 19.2747 14.5239 19.279C14.578 19.2703 14.6322 19.2703 14.6862 19.2703C14.8304 19.266 14.9702 19.279 15.1053 19.305C15.2495 19.3311 15.3802 19.3746 15.4974 19.4352L20.2295 21.9697L22.5685 23.2239L23.177 23.5494L25.3807 24.7298L26.8319 25.5066C26.8725 25.5284 26.9175 25.5501 26.9626 25.5761C26.9716 25.5805 26.9852 25.5892 26.9987 25.5935Z" fill="#757575"/>
<path d="M27.0002 26.4152V27.9385H0.0317383V26.4152C0.504924 26.1374 1.12687 25.7598 1.53251 25.5255L1.58656 25.4908L2.61857 24.8703L2.94304 24.6793L5.06571 23.4121L5.67864 23.0431L11.2174 19.7319L11.3301 19.6668L11.56 19.528L11.7944 19.3891L12.1189 19.1938L12.5515 18.9334C12.7768 18.8032 13.0698 18.7381 13.3582 18.7337C13.4122 18.7294 13.4618 18.7294 13.5159 18.7337C13.57 18.7294 13.6241 18.7294 13.6782 18.7337C13.8044 18.7337 13.926 18.7468 14.0432 18.7728C14.2055 18.8032 14.3542 18.8596 14.4804 18.9334L15.1068 19.3067L15.242 19.3891L15.4764 19.528L15.6747 19.6452L15.8189 19.732L19.0818 21.6849L21.3531 23.0432L21.9435 23.3991L24.0887 24.6794L24.4087 24.8704L25.4994 25.5257C25.5399 25.5474 25.5805 25.5691 25.6256 25.5952C25.914 25.773 26.2836 25.9944 26.6306 26.1983C26.7568 26.2763 26.883 26.3501 27.0002 26.4152Z" fill="#EAEAEA"/>
<path opacity="0.2" d="M24.6699 4.81585V5.03284C24.6699 4.58155 24.2553 4.21699 23.7415 4.21699H3.28532C2.77607 4.21699 2.35693 4.5815 2.35693 5.03284V4.81585C2.35688 4.36451 2.77607 4 3.28532 4H23.7415C24.2553 4 24.6699 4.36451 24.6699 4.81585Z" fill="#ABDBDF"/>
<defs>
<filter id="filter0_d_626_222" x="37.125" y="5.4751" width="50.7803" height="26.875" filterUnits="userSpaceOnUse" color-interpolation-filters="sRGB">
<feFlood flood-opacity="0" result="BackgroundImageFix"/>
<feColorMatrix in="SourceAlpha" type="matrix" values="0 0 0 0 0 0 0 0 0 0 0 0 0 0 0 0 0 0 127 0" result="hardAlpha"/>
<feOffset dy="4"/>
<feGaussianBlur stdDeviation="2"/>
<feComposite in2="hardAlpha" operator="out"/>
<feColorMatrix type="matrix" values="0 0 0 0 0 0 0 0 0 0 0 0 0 0 0 0 0 0 0.25 0"/>
<feBlend mode="normal" in2="BackgroundImageFix" result="effect1_dropShadow_626_222"/>
<feBlend mode="normal" in="SourceGraphic" in2="effect1_dropShadow_626_222" result="shape"/>
</filter>
</defs>
</svg>
